<svg width="537" height="211" viewBox="0 0 537 211" fill="none" xmlns="http://www.w3.org/2000/svg">
<path d="M311.894 9.96027C321.355 9.54162 329.812 9.03924 330.733 8.87178C331.654 8.70432 332.91 8.53686 333.412 8.45312C333.999 8.45312 336.259 8.78805 338.436 9.29043C340.697 9.70908 343.209 10.7976 344.214 11.5511C345.135 12.3047 346.809 14.3142 347.73 15.9051C349.321 18.3333 349.572 20.0916 349.572 26.79C349.489 34.1583 349.321 34.9956 347.228 37.6749C345.972 39.2658 344.297 41.1079 343.544 41.8615C342.455 42.7825 341.702 45.7968 340.781 52.3277C340.111 57.3515 339.525 62.8777 339.525 64.4686C339.525 66.0595 339.022 68.8226 338.269 70.4972C337.599 72.2555 335.924 74.6837 334.501 75.9396C333.161 77.2793 330.231 78.7865 328.054 79.3726C324.621 80.2936 323.532 80.2099 320.267 79.1214C318.09 78.2841 311.81 74.0138 305.363 68.8226C297.827 62.7103 293.808 58.9424 292.971 56.9329C292.133 55.1746 291.715 52.4952 292.217 46.4666L288.031 46.2154C285.686 46.1317 283.509 46.3829 283.007 46.8015C282.421 47.3876 283.928 50.1507 287.445 55.0071C290.291 59.0261 294.897 65.5571 297.66 69.4924C300.423 73.4277 303.856 78.2841 305.363 80.3773C307.707 83.5591 308.126 84.8988 308.126 88.9178C308.126 92.8531 307.791 94.0253 306.033 95.8674C304.86 97.0396 297.995 102.65 290.626 108.259C283.342 113.869 274.301 120.901 270.532 123.832L270.531 123.833C266.847 126.848 263.581 129.359 263.33 129.527C263.079 129.694 263.163 129.946 263.498 130.197C263.916 130.448 264.837 130.28 265.591 129.862C266.428 129.527 268.94 128.522 271.285 127.685C273.545 126.931 277.229 125.592 279.49 124.838C282.923 123.666 283.844 123.666 286.607 124.671C288.282 125.257 291.212 126.513 293.054 127.35C294.897 128.271 297.157 128.941 298.078 128.941C299.083 128.941 300.172 128.606 300.59 128.271C301.093 127.852 303.688 126.68 306.451 125.592C309.214 124.503 311.81 123.331 312.229 122.912C312.731 122.577 313.568 122.242 314.154 122.242C314.741 122.242 317.001 121.405 319.178 120.484C321.439 119.479 324.37 118.223 325.709 117.637C327.049 117.051 329.728 115.963 331.57 115.209C333.412 114.456 336.343 113.869 338.018 113.869C339.776 113.869 342.372 114.456 343.711 115.125C345.051 115.795 346.977 117.386 347.898 118.642C348.902 119.982 349.824 122.075 350.075 123.498C350.326 124.838 349.572 129.946 348.484 134.802C347.312 139.658 345.553 147.361 344.632 151.967C343.627 156.572 342.455 161.009 341.953 161.763C341.534 162.6 341.199 163.856 341.199 164.526C341.199 165.196 339.441 167.624 337.18 169.801C333.915 173.234 332.408 174.071 328.221 174.992C324.118 175.913 321.439 175.997 313.568 175.16C308.293 174.574 297.576 173.402 289.705 172.48C281.835 171.559 272.457 170.387 268.773 169.885C265.089 169.299 259.227 168.629 255.795 168.21C252.362 167.875 249.264 167.54 248.845 167.54C248.51 167.457 248.426 167.206 248.594 166.787C248.761 166.452 252.445 165.95 256.716 165.531C261.07 165.196 278.067 164.526 294.478 164.107C310.973 163.605 325.374 162.852 326.547 162.433C327.719 161.93 329.142 160.34 329.728 158.832C330.398 157.409 331.403 153.474 331.989 150.292C332.575 147.027 333.747 141.584 334.585 138.151C335.506 134.718 336.175 131.62 336.175 131.202C336.175 130.867 335.589 130.615 334.92 130.615C334.25 130.615 332.994 130.95 332.156 131.369C331.403 131.788 328.975 132.96 326.714 133.881C324.537 134.886 322.611 135.639 322.36 135.639C322.109 135.639 320.183 136.477 317.922 137.398C315.745 138.402 312.815 139.658 311.475 140.244C310.135 140.914 306.954 142.17 304.525 143.091C302.181 144.096 298.832 144.85 297.241 144.85C295.65 144.85 291.799 143.845 288.617 142.589C283.593 140.663 282.672 140.496 280.076 141.417C278.485 142.003 275.555 143.175 273.545 144.096C271.62 144.933 269.526 145.687 268.94 145.687C268.354 145.687 267.517 146.022 267.098 146.44C266.596 146.859 264.251 147.78 261.823 148.534C259.227 149.371 256.381 149.622 254.706 149.287C253.283 149.036 249.933 147.361 247.422 145.687C244.91 143.929 242.398 142.086 241.895 141.417C241.393 140.747 240.472 138.737 239.886 136.895C239.049 134.3 239.049 132.876 239.886 130.615C240.388 129.025 241.477 126.931 242.23 126.01C242.984 125.006 248.175 120.735 253.701 116.381C259.227 112.111 266.763 106.25 270.447 103.487C274.131 100.64 277.313 98.2119 277.564 97.9607C277.816 97.7095 280.244 95.7837 283.007 93.6067C285.77 91.5134 288.449 89.3365 289.035 88.6666C289.873 87.7456 289.035 85.9873 284.681 79.54C281.667 75.1861 276.225 67.2317 272.541 61.9567C268.856 56.6817 264.754 50.8206 263.498 49.0623C261.823 46.6341 261.237 44.7083 261.237 41.9452C261.237 39.7682 261.907 37.0888 262.744 35.7492C263.498 34.4932 265.424 32.7349 266.847 31.8138C269.359 30.3067 271.117 30.1392 285.519 30.1392C300.674 30.0555 301.595 30.1392 304.358 31.9813C305.949 33.0698 308.042 35.4142 308.879 37.2563C310.387 40.2706 310.387 41.1079 308.377 50.6531L312.145 54.0023C314.238 55.8444 317.504 58.6075 319.346 60.0309C321.272 61.538 323.114 62.794 323.616 62.794C324.118 62.794 324.621 61.3706 324.872 59.6122C325.123 57.9376 325.709 53.0813 326.128 48.9785C326.547 44.792 327.3 40.1031 327.802 38.5123C328.305 36.9214 329.979 34.242 331.487 32.6511C333.077 31.0603 334.585 28.7996 334.836 27.6273C335.171 26.4551 335.087 25.1154 334.752 24.613C334.333 23.9432 325.793 23.3571 309.8 22.6873C296.487 22.1849 273.462 21.3476 258.725 20.8452C243.989 20.4265 226.824 19.7567 220.46 19.4218C214.181 19.0869 208.738 18.5845 208.32 18.1658C207.985 17.8309 207.985 17.3285 208.32 16.9099C208.738 16.575 213.427 16.0726 218.786 15.8214C224.228 15.4865 234.611 14.8166 241.979 14.3142C249.347 13.8119 264.251 12.8071 275.052 12.0535C285.854 11.3837 302.432 10.4626 311.894 9.96027Z" fill="#F27121"/>
<path d="M436.653 5.44246C437.825 4.18651 439.918 2.42817 441.258 1.59087C442.598 0.669841 445.277 0 447.119 0C449.715 0 456.329 2.67937 475.169 11.3873C488.733 17.6671 503.637 24.7004 508.158 27.0448C514.354 30.2266 517.955 32.8222 521.974 36.925C525.658 40.5254 528.672 44.6282 530.933 49.0659C532.859 52.6663 534.868 57.6063 535.538 59.8671C536.292 62.4627 536.71 68.1563 536.71 74.5198C536.71 80.7159 536.208 86.6607 535.538 89.1726C534.952 91.5171 524.067 114.124 511.424 139.411C498.697 164.781 487.31 186.802 486.054 188.393C484.798 189.984 481.783 192.328 479.271 193.668C476.006 195.259 473.494 195.929 470.312 195.929C467.968 195.929 461.688 195.342 456.497 194.673C451.389 194.003 444.272 193.082 440.839 192.579C437.406 192.077 423.089 190.235 409.022 188.393C394.955 186.551 380.135 184.625 375.948 184.039C371.762 183.537 365.817 182.699 362.635 182.197C359.37 181.694 356.69 180.857 356.523 180.271C356.356 179.517 358.03 179.099 362.3 178.764C365.65 178.513 378.377 178.01 390.601 177.508C402.826 177.089 425.266 176.336 440.421 175.833C455.576 175.247 468.554 174.745 469.056 174.494C469.642 174.326 480.192 153.98 514.94 84.4V75.0222C514.94 66.2306 514.773 65.3933 512.261 60.2857C510.838 57.2714 508.158 53.4198 506.4 51.6615C504.474 49.7357 499.702 46.7214 494.427 44.2095C489.57 41.8651 478.853 36.8413 470.564 32.906C462.274 29.0544 454.822 25.9564 454.069 25.9564C453.231 25.9564 452.394 26.6262 452.143 27.4635C451.975 28.2171 449.129 40.6091 445.863 54.8433C442.598 69.1611 436.485 95.7036 432.299 113.873C428.196 132.042 423.926 148.621 422.921 150.714C421.498 153.729 420.158 154.985 416.558 156.827C412.539 158.92 411.366 159.171 407.096 158.752C404.5 158.501 400.9 157.664 399.142 156.91C397.467 156.24 395.039 154.65 393.783 153.394C392.443 152.138 390.852 149.793 390.183 148.202C389.513 146.612 386.08 130.954 382.647 113.454C379.13 95.9548 375.027 73.9337 373.353 64.4722C371.678 55.0107 370.087 46.8052 369.836 46.3028C369.501 45.7167 368.831 46.7214 368.245 48.8147C367.659 50.7405 365.231 60.2857 362.97 69.9147C360.626 79.6274 357.779 91.6845 356.607 96.7083C355.351 101.816 353.844 106.756 353.258 107.844C352.42 109.1 351.248 109.687 349.573 109.687C348.234 109.687 346.14 109.352 344.968 108.849C343.796 108.431 342.708 107.342 342.456 106.589C342.121 105.751 344.215 94.6988 346.978 82.0556C349.741 69.4123 354.43 47.8099 357.444 34.1619C360.542 20.4302 363.305 8.54048 363.724 7.78691C364.059 6.9496 365.482 5.44246 366.822 4.35397C368.162 3.34921 370.255 2.42817 371.511 2.5119C372.85 2.5119 375.027 3.09802 376.367 3.76786C377.707 4.4377 379.465 6.19603 380.135 7.53571C380.805 8.8754 382.479 15.5738 383.903 22.4397C385.242 29.2218 387.503 40.4417 388.927 47.3075C390.35 54.2571 394.118 72.5103 397.3 87.9167C400.481 103.323 403.831 119.734 404.835 124.339L404.965 124.931C405.911 129.27 406.681 132.8 406.761 132.88C406.845 132.964 407.766 129.614 408.854 125.344C409.943 121.074 416.139 92.9405 422.67 62.7139C433.136 14.3179 434.811 7.45198 436.653 5.44246Z" fill="white"/>
<path d="M132.294 11.0524C134.052 10.1313 139.076 9.46151 149.04 8.70794C156.91 8.20556 168.214 7.70317 174.159 7.70317C184.876 7.61944 185.127 7.61944 189.984 10.2988C193.165 11.9734 196.012 14.4016 197.771 16.746C199.278 18.8393 201.622 23.6956 202.962 27.631C204.302 31.5663 208.153 42.4512 211.419 51.9127C214.768 61.3742 218.033 70.752 218.619 72.8452C219.289 74.9385 219.792 77.7853 219.792 79.125C219.792 80.4647 218.787 83.7302 217.531 86.2421C215.856 89.5913 214.265 91.3496 211.837 92.6893C209.995 93.694 206.897 95.0337 201.622 96.7083L205.055 98.8853C206.897 100.058 209.158 101.816 209.912 102.653C210.665 103.49 214.349 110.859 218.117 118.897C221.885 126.935 227.244 138.322 229.923 144.267C233.858 152.724 234.863 155.738 234.863 159.087C234.863 161.432 234.361 164.279 233.691 165.618C233.021 166.874 231.598 168.716 230.509 169.637C229.504 170.642 227.411 171.982 226.071 172.735C224.732 173.405 218.117 175.917 211.419 178.178C204.72 180.522 190.57 185.379 180.02 189.063C169.47 192.747 157.329 196.933 153.226 198.44C149.123 199.864 143.597 201.79 141.085 202.627C138.573 203.464 132.042 205.725 126.6 207.567C121.241 209.493 115.296 211 113.454 211C111.612 211 108.849 210.498 107.342 209.912C105.919 209.242 103.407 207.316 101.9 205.474C100.392 203.715 97.6294 199.194 95.7873 195.51C92.6893 189.481 92.4381 188.477 93.0242 185.044C93.4429 182.615 94.6151 180.271 96.206 178.429C97.6294 176.838 100.309 174.661 102.151 173.489C103.993 172.317 111.696 167.963 119.315 163.86C126.935 159.757 136.062 154.901 139.578 153.142C143.262 151.3 146.277 150.212 146.528 150.714C146.779 151.217 142.676 155.989 137.485 161.432C132.377 166.79 124.925 174.745 120.99 179.015C116.385 184.123 114.124 187.053 114.71 187.556C115.213 188.058 123 185.881 136.062 181.36C147.365 177.508 158.836 173.489 161.599 172.484C164.362 171.563 169.805 169.637 173.74 168.298C177.675 166.958 187.472 163.609 195.51 160.762C203.548 157.999 210.414 155.403 210.665 155.068C211 154.733 207.232 146.025 193.417 116.971L184.206 113.706C179.099 111.863 171.814 109.268 167.879 107.928C163.944 106.505 159.255 104.663 157.413 103.825C155.571 102.904 153.394 101.062 152.556 99.6389C151.803 98.2992 151.133 95.6198 151.133 93.7778C151.133 91.9357 151.719 89.2564 152.389 87.9167C153.059 86.577 154.901 84.8187 156.324 84.0651C157.831 83.3115 166.623 81.2183 175.833 79.4599C185.044 77.7016 193.417 76.027 194.421 75.7758C195.677 75.5246 196.347 74.771 196.347 73.6825C196.347 72.7615 193.5 63.8024 189.984 53.8385C186.467 43.7909 183.285 34.4131 182.867 33.0734C182.532 31.7337 181.694 29.8917 181.108 29.0544C180.104 27.5472 179.183 27.5472 161.181 28.4683C150.798 28.9706 142.174 29.6405 141.923 29.8079C141.671 30.0591 144.016 32.7385 147.114 35.8365C151.384 40.023 152.808 42.0325 152.808 43.7909C152.808 45.0468 151.049 50.6567 148.956 56.3504C146.863 61.9603 143.765 70.1659 142.174 74.5198C140.583 78.8738 135.475 92.6056 130.87 105.081C126.265 117.557 121.409 130.703 119.985 134.387C118.646 138.071 116.385 143.681 115.129 146.946C113.789 150.212 112.282 152.975 111.696 153.226C110.942 153.561 110.775 152.724 111.277 149.877C111.612 147.784 112.785 141.588 113.873 136.062C115.045 130.535 119.567 108.849 123.921 87.9167C128.275 66.9841 131.875 49.5683 131.875 49.2333C131.875 48.8147 129.782 46.4702 127.27 43.9583C124.758 41.4464 121.911 38.0972 120.99 36.6738C119.985 34.9155 119.315 32.4873 119.315 30.1429C119.315 27.631 120.069 25.119 121.576 22.6071C122.748 20.5139 125.093 17.4159 126.767 15.6575C128.442 13.8992 130.87 11.806 132.294 11.0524Z" fill="white"/>
<path d="M0.586111 73.6825C0.921032 71.4218 1.59087 68.9937 2.17698 68.2401C2.93056 67.2353 5.60992 66.9841 18.0857 66.9841C29.3893 66.9841 33.1571 67.2353 33.4083 68.0726C33.4921 68.575 33.0734 71.0869 30.9802 77.9528L27.2123 77.869C25.119 77.7853 23.0258 78.2877 22.5234 78.8738C22.021 79.4599 20.3464 85.4048 18.8393 92.1032C17.1647 99.6389 15.5738 104.663 14.7365 105.333C13.9829 105.919 11.5548 106.337 9.21032 106.337C6.9496 106.337 4.52143 106.002 3.93532 105.667C2.93056 105.165 3.09802 103.658 4.52143 97.127C5.44246 92.773 6.69841 86.9956 7.28452 84.4C8.01019 81.1624 8.09392 79.2645 7.53571 78.7064C7.11706 78.204 5.19127 77.869 0 77.869L0.586111 73.6825Z" fill="white"/>
<path d="M35.7528 82.0556C37.5111 74.4361 39.1857 67.9889 39.4369 67.654C39.6881 67.2353 42.5349 66.9841 51.9127 66.9841L51.3266 70.5008C50.9917 72.5103 50.4056 75.5246 49.4008 80.381H59.4484L60.5369 75.1897C61.2067 72.2591 62.044 69.2448 62.4627 68.4913C63.0488 67.2353 64.3048 66.9841 69.0774 66.9841C74.6036 66.9841 74.9385 67.0679 74.9385 68.9099C74.9385 69.9147 73.1802 78.3714 70.9194 87.7492C68.4913 98.1318 66.4818 104.998 65.7282 105.584C65.0583 106.002 62.379 106.337 59.6996 106.17C57.104 106.002 54.6758 105.584 54.2571 105.249C53.9222 104.914 54.1734 102.067 54.927 98.969C55.7643 95.871 56.1829 92.8568 56.0155 92.3544C55.848 91.6845 54.0897 91.2659 51.494 91.2659C48.9821 91.2659 47.0564 91.6845 46.7214 92.3544C46.3865 92.8568 45.4655 96.0385 44.6282 99.2202C43.7909 102.486 42.6187 105.416 42.1163 105.751C41.5302 106.086 38.9345 106.337 36.2552 106.17C33.6595 106.002 31.3151 105.751 30.9802 105.5C30.6452 105.249 30.8964 102.988 31.3988 100.476C31.9849 97.9643 33.9107 89.675 35.7528 82.0556Z" fill="white"/>
<path d="M79.2087 84.5675C81.0508 76.948 82.7254 69.9147 82.8929 68.9099C83.3115 66.9841 83.5627 66.9841 108.431 66.9841L107.928 71.0032C107.677 73.1802 107.091 75.6083 106.672 76.4456C106.086 77.5341 104.663 77.9528 99.8901 78.1202C94.7825 78.2877 93.7778 78.5389 93.6103 79.7948C93.3591 80.9671 94.029 81.2183 97.5456 81.2183C99.8901 81.2183 102.318 81.3857 102.988 81.6369C103.658 81.8881 104.244 82.8929 104.244 83.9814C104.244 84.9861 103.909 87.0794 103.407 88.5865C102.569 91.2659 102.569 91.2659 96.5409 91.5171C91.4333 91.6845 90.4286 91.9357 90.2611 93.1917C90.0099 94.4476 90.7635 94.6151 95.7036 94.6151C98.8016 94.6151 101.9 94.95 102.569 95.4524C103.658 96.1222 103.658 96.8758 102.821 100.811C102.151 103.49 101.23 105.667 100.476 105.919C99.8064 106.17 94.1964 106.337 88.1679 106.337C82.0556 106.337 76.5294 106.002 75.8595 105.667C75.106 105.249 74.9385 104.16 75.3571 101.732C75.6921 99.8901 77.3667 92.1869 79.2087 84.5675Z" fill="white"/>
</svg>
