<svg width="538" height="211" viewBox="0 0 538 211" fill="none" xmlns="http://www.w3.org/2000/svg">
<path d="M312.644 9.96027C322.105 9.54162 330.562 9.03924 331.483 8.87178C332.404 8.70432 333.66 8.53686 334.162 8.45312C334.749 8.45312 337.009 8.78805 339.186 9.29043C341.447 9.70908 343.959 10.7976 344.964 11.5511C345.885 12.3047 347.559 14.3142 348.48 15.9051C350.071 18.3333 350.322 20.0916 350.322 26.79C350.239 34.1583 350.071 34.9956 347.978 37.6749C346.722 39.2658 345.047 41.1079 344.294 41.8615C343.205 42.7825 342.452 45.7968 341.531 52.3277C340.861 57.3515 340.275 62.8777 340.275 64.4686C340.275 66.0595 339.772 68.8226 339.019 70.4972C338.349 72.2555 336.674 74.6837 335.251 75.9396C333.911 77.2793 330.981 78.7865 328.804 79.3726C325.371 80.2936 324.282 80.2099 321.017 79.1214C318.84 78.2841 312.56 74.0138 306.113 68.8226C298.577 62.7103 294.558 58.9424 293.721 56.9329C292.883 55.1746 292.465 52.4952 292.967 46.4666L288.781 46.2154C286.436 46.1317 284.259 46.3829 283.757 46.8015C283.171 47.3876 284.678 50.1507 288.195 55.0071C291.041 59.0261 295.647 65.5571 298.41 69.4924C301.173 73.4277 304.606 78.2841 306.113 80.3773C308.457 83.5591 308.876 84.8988 308.876 88.9178C308.876 92.8531 308.541 94.0253 306.783 95.8674C305.61 97.0396 298.745 102.65 291.376 108.259C284.092 113.869 275.051 120.901 271.282 123.832L271.281 123.833C267.597 126.848 264.331 129.359 264.08 129.527C263.829 129.694 263.913 129.946 264.248 130.197C264.666 130.448 265.587 130.28 266.341 129.862C267.178 129.527 269.69 128.522 272.035 127.685C274.295 126.931 277.979 125.592 280.24 124.838C283.673 123.666 284.594 123.666 287.357 124.671C289.032 125.257 291.962 126.513 293.804 127.35C295.647 128.271 297.907 128.941 298.828 128.941C299.833 128.941 300.922 128.606 301.34 128.271C301.843 127.852 304.438 126.68 307.201 125.592C309.964 124.503 312.56 123.331 312.979 122.912C313.481 122.577 314.318 122.242 314.904 122.242C315.491 122.242 317.751 121.405 319.928 120.484C322.189 119.479 325.12 118.223 326.459 117.637C327.799 117.051 330.478 115.963 332.32 115.209C334.162 114.456 337.093 113.869 338.768 113.869C340.526 113.869 343.122 114.456 344.461 115.125C345.801 115.795 347.727 117.386 348.648 118.642C349.652 119.982 350.574 122.075 350.825 123.498C351.076 124.838 350.322 129.946 349.234 134.802C348.062 139.658 346.303 147.361 345.382 151.967C344.377 156.572 343.205 161.009 342.703 161.763C342.284 162.6 341.949 163.856 341.949 164.526C341.949 165.196 340.191 167.624 337.93 169.801C334.665 173.234 333.158 174.071 328.971 174.992C324.868 175.913 322.189 175.997 314.318 175.16C309.043 174.574 298.326 173.402 290.455 172.48C282.585 171.559 273.207 170.387 269.523 169.885C265.839 169.299 259.977 168.629 256.545 168.21C253.112 167.875 250.014 167.54 249.595 167.54C249.26 167.457 249.176 167.206 249.344 166.787C249.511 166.452 253.195 165.95 257.466 165.531C261.82 165.196 278.817 164.526 295.228 164.107C311.723 163.605 326.124 162.852 327.297 162.433C328.469 161.93 329.892 160.34 330.478 158.832C331.148 157.409 332.153 153.474 332.739 150.292C333.325 147.027 334.497 141.584 335.335 138.151C336.256 134.718 336.925 131.62 336.925 131.202C336.925 130.867 336.339 130.615 335.67 130.615C335 130.615 333.744 130.95 332.906 131.369C332.153 131.788 329.725 132.96 327.464 133.881C325.287 134.886 323.361 135.639 323.11 135.639C322.859 135.639 320.933 136.477 318.672 137.398C316.495 138.402 313.565 139.658 312.225 140.244C310.885 140.914 307.704 142.17 305.275 143.091C302.931 144.096 299.582 144.85 297.991 144.85C296.4 144.85 292.549 143.845 289.367 142.589C284.343 140.663 283.422 140.496 280.826 141.417C279.235 142.003 276.305 143.175 274.295 144.096C272.37 144.933 270.276 145.687 269.69 145.687C269.104 145.687 268.267 146.022 267.848 146.44C267.346 146.859 265.001 147.78 262.573 148.534C259.977 149.371 257.131 149.622 255.456 149.287C254.033 149.036 250.683 147.361 248.172 145.687C245.66 143.929 243.148 142.086 242.645 141.417C242.143 140.747 241.222 138.737 240.636 136.895C239.799 134.3 239.799 132.876 240.636 130.615C241.138 129.025 242.227 126.931 242.98 126.01C243.734 125.006 248.925 120.735 254.451 116.381C259.977 112.111 267.513 106.25 271.197 103.487C274.881 100.64 278.063 98.2119 278.314 97.9607C278.566 97.7095 280.994 95.7837 283.757 93.6067C286.52 91.5134 289.199 89.3365 289.785 88.6666C290.623 87.7456 289.785 85.9873 285.431 79.54C282.417 75.1861 276.975 67.2317 273.291 61.9567C269.606 56.6817 265.504 50.8206 264.248 49.0623C262.573 46.6341 261.987 44.7083 261.987 41.9452C261.987 39.7682 262.657 37.0888 263.494 35.7492C264.248 34.4932 266.174 32.7349 267.597 31.8138C270.109 30.3067 271.867 30.1392 286.269 30.1392C301.424 30.0555 302.345 30.1392 305.108 31.9813C306.699 33.0698 308.792 35.4142 309.629 37.2563C311.137 40.2706 311.137 41.1079 309.127 50.6531L312.895 54.0023C314.988 55.8444 318.254 58.6075 320.096 60.0309C322.022 61.538 323.864 62.794 324.366 62.794C324.868 62.794 325.371 61.3706 325.622 59.6122C325.873 57.9376 326.459 53.0813 326.878 48.9785C327.297 44.792 328.05 40.1031 328.552 38.5123C329.055 36.9214 330.729 34.242 332.237 32.6511C333.827 31.0603 335.335 28.7996 335.586 27.6273C335.921 26.4551 335.837 25.1154 335.502 24.613C335.083 23.9432 326.543 23.3571 310.55 22.6873C297.237 22.1849 274.212 21.3476 259.475 20.8452C244.739 20.4265 227.574 19.7567 221.21 19.4218C214.931 19.0869 209.488 18.5845 209.07 18.1658C208.735 17.8309 208.735 17.3285 209.07 16.9099C209.488 16.575 214.177 16.0726 219.536 15.8214C224.978 15.4865 235.361 14.8166 242.729 14.3142C250.097 13.8119 265.001 12.8071 275.802 12.0535C286.604 11.3837 303.182 10.4626 312.644 9.96027Z" fill="#F27121"/>
<path d="M437.403 5.44246C438.575 4.18651 440.668 2.42817 442.008 1.59087C443.348 0.669841 446.027 0 447.869 0C450.465 0 457.079 2.67937 475.919 11.3873C489.483 17.6671 504.387 24.7004 508.908 27.0448C515.104 30.2266 518.705 32.8222 522.724 36.925C526.408 40.5254 529.422 44.6282 531.683 49.0659C533.609 52.6663 535.618 57.6063 536.288 59.8671C537.042 62.4627 537.46 68.1563 537.46 74.5198C537.46 80.7159 536.958 86.6607 536.288 89.1726C535.702 91.5171 524.817 114.124 512.174 139.411C499.447 164.781 488.06 186.802 486.804 188.393C485.548 189.984 482.533 192.328 480.021 193.668C476.756 195.259 474.244 195.929 471.062 195.929C468.718 195.929 462.438 195.342 457.247 194.673C452.139 194.003 445.022 193.082 441.589 192.579C438.156 192.077 423.839 190.235 409.772 188.393C395.705 186.551 380.885 184.625 376.698 184.039C372.512 183.537 366.567 182.699 363.385 182.197C360.12 181.694 357.44 180.857 357.273 180.271C357.106 179.517 358.78 179.099 363.05 178.764C366.4 178.513 379.127 178.01 391.351 177.508C403.576 177.089 426.016 176.336 441.171 175.833C456.326 175.247 469.304 174.745 469.806 174.494C470.392 174.326 480.942 153.98 515.69 84.4V75.0222C515.69 66.2306 515.523 65.3933 513.011 60.2857C511.588 57.2714 508.908 53.4198 507.15 51.6615C505.224 49.7357 500.452 46.7214 495.177 44.2095C490.32 41.8651 479.603 36.8413 471.314 32.906C463.024 29.0544 455.572 25.9564 454.819 25.9564C453.981 25.9564 453.144 26.6262 452.893 27.4635C452.725 28.2171 449.879 40.6091 446.613 54.8433C443.348 69.1611 437.235 95.7036 433.049 113.873C428.946 132.042 424.676 148.621 423.671 150.714C422.248 153.729 420.908 154.985 417.308 156.827C413.289 158.92 412.116 159.171 407.846 158.752C405.25 158.501 401.65 157.664 399.892 156.91C398.217 156.24 395.789 154.65 394.533 153.394C393.193 152.138 391.602 149.793 390.933 148.202C390.263 146.612 386.83 130.954 383.397 113.454C379.88 95.9548 375.777 73.9337 374.103 64.4722C372.428 55.0107 370.837 46.8052 370.586 46.3028C370.251 45.7167 369.581 46.7214 368.995 48.8147C368.409 50.7405 365.981 60.2857 363.72 69.9147C361.376 79.6274 358.529 91.6845 357.357 96.7083C356.101 101.816 354.594 106.756 354.008 107.844C353.17 109.1 351.998 109.687 350.323 109.687C348.984 109.687 346.89 109.352 345.718 108.849C344.546 108.431 343.458 107.342 343.206 106.589C342.871 105.751 344.965 94.6988 347.728 82.0556C350.491 69.4123 355.18 47.8099 358.194 34.1619C361.292 20.4302 364.055 8.54048 364.474 7.78691C364.809 6.9496 366.232 5.44246 367.572 4.35397C368.912 3.34921 371.005 2.42817 372.261 2.5119C373.6 2.5119 375.777 3.09802 377.117 3.76786C378.457 4.4377 380.215 6.19603 380.885 7.53571C381.555 8.8754 383.229 15.5738 384.653 22.4397C385.992 29.2218 388.253 40.4417 389.677 47.3075C391.1 54.2571 394.868 72.5103 398.05 87.9167C401.231 103.323 404.581 119.734 405.585 124.339L405.715 124.931C406.661 129.27 407.431 132.8 407.511 132.88C407.595 132.964 408.516 129.614 409.604 125.344C410.693 121.074 416.889 92.9405 423.42 62.7139C433.886 14.3179 435.561 7.45198 437.403 5.44246Z" fill="#000001"/>
<path d="M133.044 11.0524C134.802 10.1313 139.826 9.46151 149.79 8.70794C157.66 8.20556 168.964 7.70317 174.909 7.70317C185.626 7.61944 185.877 7.61944 190.734 10.2988C193.915 11.9734 196.762 14.4016 198.521 16.746C200.028 18.8393 202.372 23.6956 203.712 27.631C205.052 31.5663 208.903 42.4512 212.169 51.9127C215.518 61.3742 218.783 70.752 219.369 72.8452C220.039 74.9385 220.542 77.7853 220.542 79.125C220.542 80.4647 219.537 83.7302 218.281 86.2421C216.606 89.5913 215.015 91.3496 212.587 92.6893C210.745 93.694 207.647 95.0337 202.372 96.7083L205.805 98.8853C207.647 100.058 209.908 101.816 210.662 102.653C211.415 103.49 215.099 110.859 218.867 118.897C222.635 126.935 227.994 138.322 230.673 144.267C234.608 152.724 235.613 155.738 235.613 159.087C235.613 161.432 235.111 164.279 234.441 165.618C233.771 166.874 232.348 168.716 231.259 169.637C230.254 170.642 228.161 171.982 226.821 172.735C225.482 173.405 218.867 175.917 212.169 178.178C205.47 180.522 191.32 185.379 180.77 189.063C170.22 192.747 158.079 196.933 153.976 198.44C149.873 199.864 144.347 201.79 141.835 202.627C139.323 203.464 132.792 205.725 127.35 207.567C121.991 209.493 116.046 211 114.204 211C112.362 211 109.599 210.498 108.092 209.912C106.669 209.242 104.157 207.316 102.65 205.474C101.142 203.715 98.3794 199.194 96.5373 195.51C93.4393 189.481 93.1881 188.477 93.7742 185.044C94.1929 182.615 95.3651 180.271 96.956 178.429C98.3794 176.838 101.059 174.661 102.901 173.489C104.743 172.317 112.446 167.963 120.065 163.86C127.685 159.757 136.812 154.901 140.328 153.142C144.012 151.3 147.027 150.212 147.278 150.714C147.529 151.217 143.426 155.989 138.235 161.432C133.127 166.79 125.675 174.745 121.74 179.015C117.135 184.123 114.874 187.053 115.46 187.556C115.963 188.058 123.75 185.881 136.812 181.36C148.115 177.508 159.586 173.489 162.349 172.484C165.112 171.563 170.555 169.637 174.49 168.298C178.425 166.958 188.222 163.609 196.26 160.762C204.298 157.999 211.164 155.403 211.415 155.068C211.75 154.733 207.982 146.025 194.167 116.971L184.956 113.706C179.849 111.863 172.564 109.268 168.629 107.928C164.694 106.505 160.005 104.663 158.163 103.825C156.321 102.904 154.144 101.062 153.306 99.6389C152.553 98.2992 151.883 95.6198 151.883 93.7778C151.883 91.9357 152.469 89.2564 153.139 87.9167C153.809 86.577 155.651 84.8187 157.074 84.0651C158.581 83.3115 167.373 81.2183 176.583 79.4599C185.794 77.7016 194.167 76.027 195.171 75.7758C196.427 75.5246 197.097 74.771 197.097 73.6825C197.097 72.7615 194.25 63.8024 190.734 53.8385C187.217 43.7909 184.035 34.4131 183.617 33.0734C183.282 31.7337 182.444 29.8917 181.858 29.0544C180.854 27.5472 179.933 27.5472 161.931 28.4683C151.548 28.9706 142.924 29.6405 142.673 29.8079C142.421 30.0591 144.766 32.7385 147.864 35.8365C152.134 40.023 153.558 42.0325 153.558 43.7909C153.558 45.0468 151.799 50.6567 149.706 56.3504C147.613 61.9603 144.515 70.1659 142.924 74.5198C141.333 78.8738 136.225 92.6056 131.62 105.081C127.015 117.557 122.159 130.703 120.735 134.387C119.396 138.071 117.135 143.681 115.879 146.946C114.539 150.212 113.032 152.975 112.446 153.226C111.692 153.561 111.525 152.724 112.027 149.877C112.362 147.784 113.535 141.588 114.623 136.062C115.795 130.535 120.317 108.849 124.671 87.9167C129.025 66.9841 132.625 49.5683 132.625 49.2333C132.625 48.8147 130.532 46.4702 128.02 43.9583C125.508 41.4464 122.661 38.0972 121.74 36.6738C120.735 34.9155 120.065 32.4873 120.065 30.1429C120.065 27.631 120.819 25.119 122.326 22.6071C123.498 20.5139 125.843 17.4159 127.517 15.6575C129.192 13.8992 131.62 11.806 133.044 11.0524Z" fill="#000001"/>
<path d="M1.33611 73.6825C1.67103 71.4218 2.34087 68.9937 2.92698 68.2401C3.68056 67.2353 6.35992 66.9841 18.8357 66.9841C30.1393 66.9841 33.9071 67.2353 34.1583 68.0726C34.2421 68.575 33.8234 71.0869 31.7302 77.9528L27.9623 77.869C25.869 77.7853 23.7758 78.2877 23.2734 78.8738C22.771 79.4599 21.0964 85.4048 19.5893 92.1032C17.9147 99.6389 16.3238 104.663 15.4865 105.333C14.7329 105.919 12.3048 106.337 9.96032 106.337C7.6996 106.337 5.27143 106.002 4.68532 105.667C3.68056 105.165 3.84802 103.658 5.27143 97.127C6.19246 92.773 7.44841 86.9956 8.03452 84.4C8.76019 81.1624 8.84392 79.2645 8.28571 78.7064C7.86706 78.204 5.94127 77.869 0.75 77.869L1.33611 73.6825Z" fill="#000001"/>
<path d="M36.5028 82.0556C38.2611 74.4361 39.9357 67.9889 40.1869 67.654C40.4381 67.2353 43.2849 66.9841 52.6627 66.9841L52.0766 70.5008C51.7417 72.5103 51.1556 75.5246 50.1508 80.381H60.1984L61.2869 75.1897C61.9567 72.2591 62.794 69.2448 63.2127 68.4913C63.7988 67.2353 65.0548 66.9841 69.8274 66.9841C75.3536 66.9841 75.6885 67.0679 75.6885 68.9099C75.6885 69.9147 73.9302 78.3714 71.6694 87.7492C69.2413 98.1318 67.2318 104.998 66.4782 105.584C65.8083 106.002 63.129 106.337 60.4496 106.17C57.854 106.002 55.4258 105.584 55.0071 105.249C54.6722 104.914 54.9234 102.067 55.677 98.969C56.5143 95.871 56.9329 92.8568 56.7655 92.3544C56.598 91.6845 54.8397 91.2659 52.244 91.2659C49.7321 91.2659 47.8064 91.6845 47.4714 92.3544C47.1365 92.8568 46.2155 96.0385 45.3782 99.2202C44.5409 102.486 43.3687 105.416 42.8663 105.751C42.2802 106.086 39.6845 106.337 37.0052 106.17C34.4095 106.002 32.0651 105.751 31.7302 105.5C31.3952 105.249 31.6464 102.988 32.1488 100.476C32.7349 97.9643 34.6607 89.675 36.5028 82.0556Z" fill="#000001"/>
<path d="M79.9587 84.5675C81.8008 76.948 83.4754 69.9147 83.6429 68.9099C84.0615 66.9841 84.3127 66.9841 109.181 66.9841L108.678 71.0032C108.427 73.1802 107.841 75.6083 107.422 76.4456C106.836 77.5341 105.413 77.9528 100.64 78.1202C95.5325 78.2877 94.5278 78.5389 94.3603 79.7948C94.1091 80.9671 94.779 81.2183 98.2956 81.2183C100.64 81.2183 103.068 81.3857 103.738 81.6369C104.408 81.8881 104.994 82.8929 104.994 83.9814C104.994 84.9861 104.659 87.0794 104.157 88.5865C103.319 91.2659 103.319 91.2659 97.2909 91.5171C92.1833 91.6845 91.1786 91.9357 91.0111 93.1917C90.7599 94.4476 91.5135 94.6151 96.4536 94.6151C99.5516 94.6151 102.65 94.95 103.319 95.4524C104.408 96.1222 104.408 96.8758 103.571 100.811C102.901 103.49 101.98 105.667 101.226 105.919C100.556 106.17 94.9464 106.337 88.9179 106.337C82.8056 106.337 77.2794 106.002 76.6095 105.667C75.856 105.249 75.6885 104.16 76.1071 101.732C76.4421 99.8901 78.1167 92.1869 79.9587 84.5675Z" fill="#000001"/>
</svg>
